<svg width="16" height="16" viewBox="0 0 16 16" fill="none" xmlns="http://www.w3.org/2000/svg">
<path d="M5.66667 13.4444V8.77778C5.66667 7.91867 4.97022 7.22222 4.11111 7.22222H2.55556C1.69645 7.22222 1 7.91867 1 8.77778V13.4444C1 14.3036 1.69645 15 2.55556 15H4.11111C4.97022 15 5.66667 14.3036 5.66667 13.4444ZM5.66667 13.4444V5.66667C5.66667 4.80756 6.36311 4.11111 7.22222 4.11111H8.77778C9.63689 4.11111 10.3333 4.80756 10.3333 5.66667V13.4444M5.66667 13.4444C5.66667 14.3036 6.36311 15 7.22222 15H8.77778C9.63689 15 10.3333 14.3036 10.3333 13.4444M10.3333 13.4444V2.55556C10.3333 1.69645 11.0298 1 11.8889 1H13.4444C14.3036 1 15 1.69645 15 2.55556V13.4444C15 14.3036 14.3036 15 13.4444 15H11.8889C11.0298 15 10.3333 14.3036 10.3333 13.4444Z" stroke="#111827" stroke-width="1.67" stroke-linecap="round" stroke-linejoin="round"/>
</svg>
