<svg width="14" height="14" viewBox="0 0 14 14" fill="none" xmlns="http://www.w3.org/2000/svg">
<path fill-rule="evenodd" clip-rule="evenodd" d="M7 0C5.067 0 3.5 1.567 3.5 3.5V4.375H2.625C2.17915 4.375 1.80459 4.71024 1.75536 5.15337L0.880356 13.0284C0.852871 13.2757 0.932029 13.5231 1.09802 13.7086C1.26401 13.894 1.50112 14 1.75 14H12.25C12.4989 14 12.736 13.894 12.902 13.7086C13.068 13.5231 13.1471 13.2757 13.1197 13.0284L12.2447 5.15337C12.1954 4.71024 11.8209 4.375 11.375 4.375H10.5V3.5C10.5 1.567 8.933 0 7 0ZM8.75 4.375V3.5C8.75 2.5335 7.9665 1.75 7 1.75C6.0335 1.75 5.25 2.5335 5.25 3.5V4.375H8.75ZM3.5 7C3.5 6.51675 3.89175 6.125 4.375 6.125C4.85825 6.125 5.25 6.51675 5.25 7C5.25 7.48325 4.85825 7.875 4.375 7.875C3.89175 7.875 3.5 7.48325 3.5 7ZM9.625 6.125C9.14175 6.125 8.75 6.51675 8.75 7C8.75 7.48325 9.14175 7.875 9.625 7.875C10.1082 7.875 10.5 7.48325 10.5 7C10.5 6.51675 10.1082 6.125 9.625 6.125Z" fill="#F9FAFB"/>
</svg>
